<?xml version="1.0" encoding="UTF-8" standalone="no"?>
<svg
   width="18"
   height="16"
   fill="currentColor"
   class="bi bi-box-arrow-up-right"
   viewBox="0 0 18 16"
   version="1.1"
   id="svg2"
   sodipodi:docname="box-arrow-up-right.svg"
   inkscape:version="1.3.2 (091e20e, 2023-11-25)"
   xmlns:inkscape="http://www.inkscape.org/namespaces/inkscape"
   xmlns:sodipodi="http://sodipodi.sourceforge.net/DTD/sodipodi-0.dtd"
   xmlns="http://www.w3.org/2000/svg"
   xmlns:svg="http://www.w3.org/2000/svg">
  <defs
     id="defs2" />
  <sodipodi:namedview
     id="namedview2"
     pagecolor="#ffffff"
     bordercolor="#cccccc"
     borderopacity="1"
     inkscape:showpageshadow="0"
     inkscape:pageopacity="1"
     inkscape:pagecheckerboard="0"
     inkscape:deskcolor="#d1d1d1"
     inkscape:zoom="14.75"
     inkscape:cx="8"
     inkscape:cy="8"
     inkscape:window-width="1312"
     inkscape:window-height="449"
     inkscape:window-x="0"
     inkscape:window-y="43"
     inkscape:window-maximized="0"
     inkscape:current-layer="svg2" />
  <path
     fill-rule="evenodd"
     d="M 10.636,3.5 A 0.5,0.5 0 0 0 10.136,3 H 3.5 A 1.5,1.5 0 0 0 2,4.5 v 10 A 1.5,1.5 0 0 0 3.5,16 h 10 A 1.5,1.5 0 0 0 15,14.5 V 7.864 a 0.5,0.5 0 0 0 -1,0 V 14.5 A 0.5,0.5 0 0 1 13.5,15 H 3.5 A 0.5,0.5 0 0 1 3,14.5 V 4.5 A 0.5,0.5 0 0 1 3.5,4 h 6.636 a 0.5,0.5 0 0 0 0.5,-0.5"
     id="path1" />
  <path
     fill-rule="evenodd"
     d="M 18,0.5 A 0.5,0.5 0 0 0 17.5,0 h -5 a 0.5,0.5 0 0 0 0,1 h 3.793 L 8.146,9.146 A 0.5006316,0.5006316 0 1 0 8.854,9.854 L 17,1.707 V 5.5 a 0.5,0.5 0 0 0 1,0 z"
     id="path2" />
</svg>
