<?xml version="1.0" encoding="UTF-8" standalone="no"?>
<!-- Generator: Adobe Illustrator 24.1.1, SVG Export Plug-In . SVG Version: 6.00 Build 0)  -->

<svg
   version="1.1"
   id="Layer_1"
   x="0px"
   y="0px"
   viewBox="0 0 16 18"
   xml:space="preserve"
   sodipodi:docname="external-link_5.svg"
   width="16"
   height="18"
   inkscape:version="1.3.2 (091e20e, 2023-11-25)"
   xmlns:inkscape="http://www.inkscape.org/namespaces/inkscape"
   xmlns:sodipodi="http://sodipodi.sourceforge.net/DTD/sodipodi-0.dtd"
   xmlns="http://www.w3.org/2000/svg"
   xmlns:svg="http://www.w3.org/2000/svg"><defs
   id="defs1" /><sodipodi:namedview
   id="namedview1"
   pagecolor="#ffffff"
   bordercolor="#cccccc"
   borderopacity="1"
   inkscape:showpageshadow="0"
   inkscape:pageopacity="1"
   inkscape:pagecheckerboard="0"
   inkscape:deskcolor="#d1d1d1"
   inkscape:zoom="10.273571"
   inkscape:cx="5.8888967"
   inkscape:cy="16.255302"
   inkscape:window-width="1312"
   inkscape:window-height="751"
   inkscape:window-x="0"
   inkscape:window-y="43"
   inkscape:window-maximized="0"
   inkscape:current-layer="Layer_1" />
<g
   id="g1"
   transform="scale(0.03125)"
   style="stroke-width:32">
	<path
   d="m 455.1,97 -293,293 c -10.3,11.9 -28.3,13.1 -40.1,2.8 -11.8,-10.3 -13.1,-28.3 -2.8,-40.1 l 3.1,-3.1 L 414.7,56.9 H 312.9 C 297.2,56.9 284.5,44.2 284.5,28.5 284.5,12.8 297.2,0 312.9,0 H 483.6 C 499.3,0 512,12.7 512,28.4 v 170.7 c 0,15.7 -12.7,28.4 -28.4,28.4 -15.7,0 -28.4,-12.7 -28.4,-28.4 V 97 Z m -56.9,215.9 c 0,-15.7 12.7,-28.4 28.4,-28.4 15.7,0 28.4,12.7 28.4,28.4 v 142.2 c 0,31.4 -25.5,56.9 -56.9,56.9 H 56.9 C 25.5,512 0,486.5 0,455.1 V 113.8 C 0,82.5 25.6,56.9 56.9,56.9 h 142.2 c 15.7,0 28.4,12.7 28.4,28.4 0,15.7 -12.7,28.4 -28.4,28.4 H 56.9 V 455 h 341.3 z"
   id="path1"
   style="stroke-width:32" />
</g>
</svg>
